# xmcd CD database file
#
# Track frame offsets:
#	150
#	18020
#	38656
#	57355
#	76572
#	99816
#	134739
#	160997
#	179951
#	221320
#	262140
#
# Disc length: 3875 seconds
#
# Revision: 4
# Processed by: cddbd v1.5.2PL0 Copyright (c) Steve Scherf et al.
# Submitted via: CDex 1.51
#
DISCID=8e0f210b
DTITLE=Gabin - Mr. Freedom
DYEAR=2004
DGENRE=Jazz
TTITLE0=Mr. Freedom
TTITLE1=Into My Soul
TTITLE2=The Other Way Round
TTITLE3=Bang Bang To The Rock 'N' Roll
TTITLE4=The Thousand And One Nights
TTITLE5=It's Gonna Be
TTITLE6=Midnight Cafe
TTITLE7=Just Be Yourself
TTITLE8=Africa
TTITLE9=And She's Still Watching Me
TTITLE10=Dati Traccia
EXTD=YEAR: 2004
EXTT0=
EXTT1=
EXTT2=
EXTT3=
EXTT4=
EXTT5=
EXTT6=
EXTT7=
EXTT8=
EXTT9=
EXTT10=
PLAYORDER=
